<svg width="436" height="100" viewBox="0 0 436 100" fill="none" xmlns="http://www.w3.org/2000/svg">
<g clip-path="url(#clip0_468_1051)">
<path fill-rule="evenodd" clip-rule="evenodd" d="M138 67.3233L133.411 64.6113L131.294 63.4906C113.036 53.825 90.6751 64.8864 87.2789 85.2633C87.2708 85.3118 87.2112 85.3309 87.1764 85.2961L80.3369 78.4566C76.6665 72.0333 67.1721 72.7963 64.5744 79.7233L57.2629 99.2208C57.2623 99.2223 57.2603 99.2224 57.2595 99.221L43.4162 73.8415C35.1479 61.4391 19.8711 55.719 5.49043 59.641L4.18786 59.9963L-3.00643e-08 61.4919C3.84566 26.8996 33.1811 0 68.7992 0C106.395 0 136.992 29.9705 138 67.3233Z" fill="url(#paint0_linear_468_1051)"/>
<g clip-path="url(#clip1_468_1051)">
<path d="M52.5775 28.3567L61.392 34.4951L71.1041 41.5445L80.3343 32.3143L74.7809 30.3405L59.2164 25.5497C59.0626 25.5067 58.9005 25.5039 58.7453 25.5415L52.9158 26.6899C52.7356 26.7225 52.5692 26.8084 52.4383 26.9365C52.3074 27.0646 52.2179 27.229 52.1815 27.4086C52.145 27.5881 52.1633 27.7744 52.2339 27.9434C52.3045 28.1125 52.4242 28.2564 52.5775 28.3567Z" fill="white"/>
<path d="M103.587 35.935L93.6642 29.9891C92.8301 29.488 91.898 29.1721 90.9311 29.063C89.9641 28.9539 88.985 29.054 88.0602 29.3567L47.7398 41.8822L40.0885 38.9058C39.6487 38.7397 39.1679 38.7158 38.7139 38.8377C38.2599 38.9596 37.8556 39.221 37.5582 39.585C37.2608 39.949 37.0853 40.3973 37.0563 40.8665C37.0274 41.3357 37.1466 41.8021 37.3971 42.1999L42.9234 50.7664C43.0138 50.9091 43.1393 51.0262 43.288 51.1065C43.4366 51.1869 43.6033 51.2277 43.7722 51.2251C46.2133 51.1251 55.7 49.5881 66.9714 47.5956L81.396 45.0244C89.4747 43.5592 97.2072 42.109 102.656 41.0777C103.218 40.9806 103.737 40.713 104.141 40.3113C104.546 39.9096 104.818 39.3931 104.92 38.8318C105.021 38.2706 104.948 37.6916 104.709 37.1735C104.471 36.6553 104.079 36.223 103.587 35.935Z" fill="white"/>
</g>
<path d="M179.907 38.875C179.907 38.0319 179.782 37.2799 179.531 36.6191C179.281 35.9355 178.825 35.3089 178.164 34.7393C177.503 34.1696 176.569 33.5999 175.361 33.0303C174.154 32.4378 172.57 31.834 170.61 31.2188C168.377 30.4896 166.247 29.6693 164.219 28.7578C162.214 27.8236 160.425 26.7412 158.853 25.5107C157.28 24.2803 156.038 22.8447 155.127 21.2041C154.238 19.5635 153.794 17.6494 153.794 15.4619C153.794 13.3428 154.261 11.4287 155.195 9.71973C156.13 8.01074 157.44 6.55241 159.126 5.34473C160.812 4.11426 162.795 3.18001 165.073 2.54199C167.352 1.88118 169.858 1.55078 172.593 1.55078C176.239 1.55078 179.44 2.2002 182.197 3.49902C184.977 4.77507 187.142 6.5752 188.691 8.89941C190.241 11.2008 191.016 13.8783 191.016 16.9316H179.941C179.941 15.5872 179.657 14.4023 179.087 13.377C178.54 12.3288 177.697 11.5085 176.558 10.916C175.441 10.3236 174.04 10.0273 172.354 10.0273C170.713 10.0273 169.334 10.278 168.218 10.7793C167.124 11.2578 166.292 11.9186 165.723 12.7617C165.176 13.6048 164.902 14.5277 164.902 15.5303C164.902 16.3278 165.107 17.057 165.518 17.7178C165.951 18.3558 166.566 18.9596 167.363 19.5293C168.184 20.0762 169.186 20.6003 170.371 21.1016C171.556 21.6029 172.912 22.0814 174.438 22.5371C177.104 23.3802 179.463 24.3145 181.514 25.3398C183.587 26.3652 185.33 27.5273 186.743 28.8262C188.156 30.125 189.215 31.5947 189.922 33.2354C190.651 34.876 191.016 36.7331 191.016 38.8066C191.016 41.0169 190.583 42.9766 189.717 44.6855C188.874 46.3945 187.643 47.8529 186.025 49.0605C184.43 50.2454 182.516 51.1455 180.283 51.7607C178.05 52.376 175.555 52.6836 172.798 52.6836C170.291 52.6836 167.819 52.3646 165.381 51.7266C162.943 51.0658 160.732 50.0632 158.75 48.7188C156.79 47.3743 155.218 45.6654 154.033 43.5918C152.871 41.4954 152.29 39.0117 152.29 36.1406H163.433C163.433 37.6445 163.649 38.9206 164.082 39.9688C164.515 40.9941 165.13 41.8258 165.928 42.4639C166.748 43.1019 167.739 43.5576 168.901 43.8311C170.063 44.1045 171.362 44.2412 172.798 44.2412C174.461 44.2412 175.806 44.0133 176.831 43.5576C177.879 43.0791 178.654 42.4297 179.155 41.6094C179.657 40.7891 179.907 39.8776 179.907 38.875ZM224.93 15.0176V22.5029H202.987V15.0176H224.93ZM208.011 5.85742H218.709V40.4131C218.709 41.4385 218.835 42.2246 219.085 42.7715C219.336 43.3184 219.746 43.7057 220.316 43.9336C220.885 44.1387 221.615 44.2412 222.503 44.2412C223.141 44.2412 223.688 44.2184 224.144 44.1729C224.6 44.1273 225.021 44.0703 225.409 44.002V51.7266C224.497 52.0228 223.529 52.2507 222.503 52.4102C221.478 52.5924 220.361 52.6836 219.154 52.6836C216.852 52.6836 214.858 52.3076 213.172 51.5557C211.509 50.8037 210.233 49.6188 209.344 48.001C208.455 46.3604 208.011 44.2298 208.011 41.6094V5.85742ZM256.589 52.6836C253.649 52.6836 251.017 52.2165 248.693 51.2822C246.369 50.348 244.398 49.0605 242.78 47.4199C241.185 45.7565 239.966 43.8424 239.123 41.6777C238.28 39.513 237.858 37.2002 237.858 34.7393V33.4404C237.858 30.6833 238.246 28.1426 239.02 25.8184C239.795 23.4941 240.923 21.4775 242.404 19.7686C243.908 18.0368 245.754 16.7038 247.941 15.7695C250.129 14.8125 252.624 14.334 255.427 14.334C258.047 14.334 260.383 14.7669 262.433 15.6328C264.484 16.4759 266.216 17.695 267.629 19.29C269.041 20.8623 270.112 22.765 270.842 24.998C271.594 27.2083 271.97 29.6921 271.97 32.4492V36.8242H242.165V29.9541H261.511V29.1338C261.511 27.835 261.271 26.6956 260.793 25.7158C260.337 24.736 259.653 23.984 258.742 23.46C257.853 22.9131 256.725 22.6396 255.358 22.6396C254.059 22.6396 252.977 22.9131 252.111 23.46C251.245 24.0068 250.55 24.7816 250.026 25.7842C249.525 26.764 249.16 27.9147 248.932 29.2363C248.705 30.5352 248.591 31.9365 248.591 33.4404V34.7393C248.591 36.1748 248.784 37.485 249.172 38.6699C249.559 39.8548 250.129 40.8688 250.881 41.7119C251.633 42.555 252.544 43.2158 253.615 43.6943C254.686 44.1729 255.905 44.4121 257.272 44.4121C258.958 44.4121 260.565 44.0931 262.092 43.4551C263.618 42.7943 264.94 41.7689 266.056 40.3789L271.047 46.0869C270.295 47.1807 269.235 48.2402 267.868 49.2656C266.524 50.2682 264.906 51.0885 263.014 51.7266C261.123 52.3646 258.981 52.6836 256.589 52.6836ZM296.963 22.127V66.2188H286.299V15.0176H296.245L296.963 22.127ZM320.034 33.0986V33.8164C320.034 36.5052 319.727 39.0003 319.112 41.3018C318.496 43.5804 317.573 45.5742 316.343 47.2832C315.135 48.9922 313.643 50.3252 311.865 51.2822C310.088 52.2165 308.026 52.6836 305.679 52.6836C303.446 52.6836 301.509 52.2165 299.868 51.2822C298.251 50.3252 296.883 49.0036 295.767 47.3174C294.673 45.6084 293.784 43.6602 293.101 41.4727C292.44 39.2624 291.927 36.904 291.563 34.3975V32.9961C291.927 30.3301 292.451 27.8577 293.135 25.5791C293.819 23.3005 294.707 21.3294 295.801 19.666C296.895 17.9798 298.251 16.6696 299.868 15.7354C301.486 14.8011 303.412 14.334 305.645 14.334C307.969 14.334 310.031 14.7783 311.831 15.667C313.631 16.5557 315.135 17.8317 316.343 19.4951C317.573 21.1357 318.496 23.1068 319.112 25.4082C319.727 27.7096 320.034 30.2731 320.034 33.0986ZM309.336 33.8164V33.0986C309.336 31.5947 309.222 30.2161 308.994 28.9629C308.766 27.6868 308.402 26.5817 307.901 25.6475C307.399 24.6904 306.738 23.9499 305.918 23.4258C305.098 22.9017 304.095 22.6396 302.91 22.6396C301.634 22.6396 300.552 22.8447 299.663 23.2549C298.775 23.665 298.057 24.2689 297.51 25.0664C296.963 25.8411 296.564 26.7982 296.314 27.9375C296.086 29.0768 295.96 30.3757 295.938 31.834V35.5938C295.96 37.3027 296.2 38.8294 296.655 40.1738C297.134 41.4954 297.875 42.5322 298.877 43.2842C299.903 44.0133 301.27 44.3779 302.979 44.3779C304.186 44.3779 305.189 44.1159 305.987 43.5918C306.807 43.0449 307.456 42.2816 307.935 41.3018C308.436 40.3219 308.789 39.194 308.994 37.918C309.222 36.6419 309.336 35.2747 309.336 33.8164ZM346.053 15.0176V52H335.355V15.0176H346.053ZM334.706 5.44727C334.706 3.89779 335.253 2.63314 336.346 1.65332C337.44 0.650716 338.876 0.149414 340.653 0.149414C342.43 0.149414 343.866 0.650716 344.96 1.65332C346.076 2.63314 346.634 3.89779 346.634 5.44727C346.634 6.97396 346.076 8.23861 344.96 9.24121C343.866 10.221 342.43 10.7109 340.653 10.7109C338.876 10.7109 337.44 10.221 336.346 9.24121C335.253 8.23861 334.706 6.97396 334.706 5.44727Z" fill="black"/>
<path d="M156.904 79.7812V94H155.049V79.7812H156.904ZM161.475 79.7812V81.3242H150.488V79.7812H161.475ZM167.584 79.7812H172.291C173.359 79.7812 174.26 79.944 174.996 80.2695C175.738 80.5951 176.301 81.0768 176.686 81.7148C177.076 82.3464 177.271 83.1243 177.271 84.0488C177.271 84.6999 177.138 85.2956 176.871 85.8359C176.611 86.3698 176.233 86.8255 175.738 87.2031C175.25 87.5742 174.664 87.8509 173.98 88.0332L173.453 88.2383H169.029L169.01 86.7051H172.35C173.027 86.7051 173.59 86.5879 174.039 86.3535C174.488 86.1126 174.827 85.7904 175.055 85.3867C175.283 84.9831 175.396 84.5371 175.396 84.0488C175.396 83.502 175.289 83.0234 175.074 82.6133C174.859 82.2031 174.521 81.8874 174.059 81.666C173.603 81.4382 173.014 81.3242 172.291 81.3242H169.469V94H167.584V79.7812ZM175.895 94L172.438 87.5547L174.4 87.5449L177.906 93.8828V94H175.895ZM189.172 81.041L184.465 94H182.541L187.961 79.7812H189.201L189.172 81.041ZM193.117 94L188.4 81.041L188.371 79.7812H189.611L195.051 94H193.117ZM192.873 88.7363V90.2793H184.885V88.7363H192.873ZM204.686 91.8418L208.875 79.7812H210.916L205.652 94H204.197L204.686 91.8418ZM200.77 79.7812L204.92 91.8418L205.438 94H203.982L198.729 79.7812H200.77ZM225.863 92.4668V94H218.334V92.4668H225.863ZM218.715 79.7812V94H216.83V79.7812H218.715ZM224.867 85.8945V87.4277H218.334V85.8945H224.867ZM225.766 79.7812V81.3242H218.334V79.7812H225.766ZM240.82 92.4668V94H233.711V92.4668H240.82ZM234.082 79.7812V94H232.197V79.7812H234.082ZM261.203 81.041L256.496 94H254.572L259.992 79.7812H261.232L261.203 81.041ZM265.148 94L260.432 81.041L260.402 79.7812H261.643L267.082 94H265.148ZM264.904 88.7363V90.2793H256.916V88.7363H264.904ZM283.377 86.9199V92.125C283.201 92.3854 282.921 92.6784 282.537 93.0039C282.153 93.3229 281.622 93.6029 280.945 93.8438C280.275 94.0781 279.409 94.1953 278.348 94.1953C277.482 94.1953 276.684 94.0456 275.955 93.7461C275.232 93.4401 274.604 92.9974 274.07 92.418C273.543 91.832 273.133 91.1224 272.84 90.2891C272.553 89.4492 272.41 88.4987 272.41 87.4375V86.334C272.41 85.2728 272.534 84.3255 272.781 83.4922C273.035 82.6589 273.406 81.9525 273.895 81.373C274.383 80.7871 274.982 80.3444 275.691 80.0449C276.401 79.7389 277.215 79.5859 278.133 79.5859C279.22 79.5859 280.128 79.7747 280.857 80.1523C281.593 80.5234 282.166 81.0378 282.576 81.6953C282.993 82.3529 283.26 83.1016 283.377 83.9414H281.492C281.408 83.4271 281.238 82.9583 280.984 82.5352C280.737 82.112 280.382 81.7734 279.92 81.5195C279.458 81.2591 278.862 81.1289 278.133 81.1289C277.475 81.1289 276.906 81.2493 276.424 81.4902C275.942 81.7311 275.545 82.0762 275.232 82.5254C274.92 82.9746 274.686 83.5182 274.529 84.1562C274.38 84.7943 274.305 85.5137 274.305 86.3145V87.4375C274.305 88.2578 274.399 88.9902 274.588 89.6348C274.783 90.2793 275.06 90.8294 275.418 91.2852C275.776 91.7344 276.202 92.0762 276.697 92.3105C277.199 92.5449 277.752 92.6621 278.357 92.6621C279.028 92.6621 279.572 92.6068 279.988 92.4961C280.405 92.3789 280.73 92.2422 280.965 92.0859C281.199 91.9232 281.378 91.7702 281.502 91.627V88.4434H278.211V86.9199H283.377ZM299.535 92.4668V94H292.006V92.4668H299.535ZM292.387 79.7812V94H290.502V79.7812H292.387ZM298.539 85.8945V87.4277H292.006V85.8945H298.539ZM299.438 79.7812V81.3242H292.006V79.7812H299.438ZM316.807 79.7812V94H314.912L307.754 83.0332V94H305.869V79.7812H307.754L314.941 90.7773V79.7812H316.807ZM332.73 89.4785H334.605C334.508 90.377 334.251 91.181 333.834 91.8906C333.417 92.6003 332.828 93.1634 332.066 93.5801C331.305 93.9902 330.354 94.1953 329.215 94.1953C328.382 94.1953 327.623 94.0391 326.939 93.7266C326.262 93.4141 325.68 92.9714 325.191 92.3984C324.703 91.819 324.326 91.1257 324.059 90.3184C323.798 89.5046 323.668 88.5996 323.668 87.6035V86.1875C323.668 85.1914 323.798 84.2897 324.059 83.4824C324.326 82.6686 324.706 81.972 325.201 81.3926C325.702 80.8132 326.305 80.3672 327.008 80.0547C327.711 79.7422 328.502 79.5859 329.381 79.5859C330.455 79.5859 331.363 79.7878 332.105 80.1914C332.848 80.5951 333.424 81.1549 333.834 81.8711C334.251 82.5807 334.508 83.4043 334.605 84.3418H332.73C332.639 83.6777 332.47 83.1081 332.223 82.6328C331.975 82.151 331.624 81.7799 331.168 81.5195C330.712 81.2591 330.117 81.1289 329.381 81.1289C328.749 81.1289 328.193 81.2493 327.711 81.4902C327.236 81.7311 326.835 82.0729 326.51 82.5156C326.191 82.9583 325.95 83.4889 325.787 84.1074C325.624 84.7259 325.543 85.4128 325.543 86.168V87.6035C325.543 88.3001 325.615 88.9544 325.758 89.5664C325.908 90.1784 326.132 90.7155 326.432 91.1777C326.731 91.64 327.112 92.0046 327.574 92.2715C328.036 92.5319 328.583 92.6621 329.215 92.6621C330.016 92.6621 330.654 92.5352 331.129 92.2812C331.604 92.0273 331.962 91.6628 332.203 91.1875C332.451 90.7122 332.626 90.1426 332.73 89.4785ZM341.828 79.7812L345.52 86.9199L349.221 79.7812H351.359L346.457 88.6875V94H344.572V88.6875L339.67 79.7812H341.828Z" fill="black"/>
</g>
<defs>
<linearGradient id="paint0_linear_468_1051" x1="110.33" y1="-29.9981" x2="73.4089" y2="78.4566" gradientUnits="userSpaceOnUse">
<stop stop-color="#FE8F20"/>
<stop offset="1" stop-color="#FB6641"/>
</linearGradient>
<clipPath id="clip0_468_1051">
<rect width="436" height="100" fill="white"/>
</clipPath>
<clipPath id="clip1_468_1051">
<rect width="64.6113" height="64.6113" fill="white" transform="translate(48.5898 5.20312) rotate(18.7503)"/>
</clipPath>
</defs>
</svg>
