<svg width="60" height="60" viewBox="0 0 60 60" fill="none" xmlns="http://www.w3.org/2000/svg">
<path d="M14.2084 23.9844C12.7587 27.8277 12.7587 32.0675 14.2084 35.9108L15.9629 35.2493C14.674 31.8323 14.674 28.0628 15.9629 24.6459L14.2084 23.9844Z" fill="#FFBB4A"/>
<path d="M35.3 43.9844C31.8831 45.2732 28.1136 45.2732 24.6967 43.9844L24.0352 45.7387C27.8784 47.1887 32.1183 47.1887 35.9616 45.7387L35.3 43.9844Z" fill="#FFBB4A"/>
<path d="M58.1252 31.1299C58.1306 29.1623 57.7456 27.2132 56.9926 25.3954C56.2397 23.5775 55.1336 21.9271 53.7385 20.5396L49.225 16.0261L49.8876 15.3635C49.9747 15.2765 50.0437 15.1731 50.0908 15.0594C50.138 14.9456 50.1622 14.8237 50.1622 14.7006C50.1622 14.5775 50.138 14.4556 50.0908 14.3418C50.0437 14.2281 49.9747 14.1247 49.8876 14.0377L45.91 10.0601C45.7342 9.8843 45.4958 9.78555 45.2472 9.78555C44.9985 9.78555 44.7601 9.8843 44.5843 10.0601L43.7087 10.9357C41.6677 9.46572 39.404 8.33295 37.0039 7.58064L40.4358 5.52165C42.3037 4.40354 44.4988 3.9603 46.6542 4.26599C46.9082 4.30224 47.1525 4.38891 47.3726 4.52092C47.5927 4.65292 47.7841 4.8276 47.9357 5.03467C48.0874 5.24174 48.196 5.47703 48.2554 5.72671C48.3148 5.97639 48.3236 6.23542 48.2814 6.48857C48.115 7.46243 48.336 8.46277 48.8972 9.27588C49.4584 10.089 50.3154 10.6504 51.285 10.8401L51.9986 10.9826C52.5228 11.0872 53.0632 11.0802 53.5846 10.962C54.1059 10.8438 54.5965 10.617 55.0243 10.2965L57.7502 8.25212L56.6252 6.75212L53.8993 8.79658C53.6825 8.95894 53.4339 9.07382 53.1698 9.13372C52.9057 9.19363 52.6319 9.19722 52.3662 9.14427L51.6524 9.00212C51.1611 8.90602 50.7268 8.62151 50.4424 8.2094C50.158 7.79729 50.0461 7.29029 50.1306 6.79677C50.214 6.29716 50.1966 5.78593 50.0795 5.29314C49.9624 4.80035 49.7479 4.33594 49.4488 3.92721C49.1496 3.51847 48.7718 3.17367 48.3375 2.91305C47.9032 2.65244 47.4211 2.48127 46.9197 2.40962C44.3381 2.04369 41.709 2.57458 39.4716 3.91361L34.4371 6.934C31.0886 6.29516 27.6415 6.38669 24.3316 7.20236L24.7833 9.02228C27.7763 8.27629 30.8945 8.18109 33.9273 8.74309C36.9602 9.3051 39.8372 10.5112 42.3642 12.2801L36.243 18.4013C34.3226 17.3735 32.1782 16.8358 30.0001 16.8358C27.822 16.8358 25.6776 17.3735 23.7573 18.4013L17.6353 12.2792C19.1918 11.1862 20.8872 10.3058 22.6765 9.66119L22.041 7.89716C19.9914 8.6353 18.0557 9.65776 16.2907 10.9345L15.4161 10.06C15.2403 9.88419 15.0018 9.78543 14.7532 9.78543C14.5046 9.78543 14.2662 9.88419 14.0903 10.06L10.1128 14.0377C10.0257 14.1247 9.95664 14.2281 9.90952 14.3418C9.86241 14.4556 9.83816 14.5775 9.83816 14.7006C9.83816 14.8237 9.86241 14.9456 9.90952 15.0594C9.95664 15.1731 10.0257 15.2765 10.1128 15.3635L10.7753 16.0261L6.26186 20.5396C4.71524 22.0861 3.52612 23.9526 2.7781 26.0079C2.03008 28.0632 1.74131 30.2574 1.93208 32.4363C2.12286 34.6151 2.78855 36.7257 3.88237 38.6198C4.97618 40.5138 6.47158 42.1453 8.26342 43.3995L10.0262 44.6335C9.89055 44.8136 9.82462 45.0368 9.84054 45.2617C9.85645 45.4867 9.95313 45.6983 10.1128 45.8576L14.0903 49.8349C14.2662 50.0107 14.5046 50.1095 14.7532 50.1095C15.0018 50.1095 15.2403 50.0107 15.4161 49.8349L16.2911 48.9599C19.6156 51.3506 23.5064 52.8323 27.579 53.2585L25.4825 53.9572C25.1544 54.0676 24.8077 54.1119 24.4624 54.0873C24.1171 54.0628 23.7801 53.97 23.471 53.8144L20.767 52.4624C20.1403 52.1509 19.45 51.9888 18.7502 51.9888C18.0504 51.9888 17.36 52.1509 16.7334 52.4624L15.0089 53.3247C14.5144 53.5724 13.9544 53.6581 13.4084 53.5695C12.8624 53.481 12.3583 53.2226 11.9675 52.8312C11.267 52.1331 10.357 51.684 9.37678 51.5528C8.3966 51.4215 7.40043 51.6154 6.541 52.1046L2.34757 54.5006L3.2778 56.1286L7.47124 53.7326C7.97336 53.4468 8.55535 53.3335 9.12801 53.4102C9.70066 53.4869 10.2324 53.7492 10.6416 54.157C11.3104 54.8272 12.1733 55.2696 13.1079 55.4213C14.0424 55.5729 15.001 55.4262 15.8473 55.0019L17.5719 54.1397C17.938 53.9577 18.3413 53.8629 18.7502 53.8629C19.1591 53.8629 19.5624 53.9577 19.9285 54.1397L22.6325 55.4917C23.1617 55.7581 23.7385 55.9168 24.3295 55.9588C24.9204 56.0008 25.5139 55.9252 26.0755 55.7364L31.8207 53.8212C32.4328 53.6168 33.0987 53.6445 33.6917 53.8991L37.6878 55.6116C38.7555 56.0713 39.9599 56.099 41.0477 55.6889L45.746 53.9271C46.0854 53.8004 46.4473 53.7449 46.8092 53.7639C47.171 53.7829 47.5251 53.876 47.8495 54.0375L50.6463 55.4359C51.2159 55.7205 51.8393 55.8814 52.4755 55.9079C53.1118 55.9343 53.7464 55.8259 54.3377 55.5895L57.5357 54.3103L56.8394 52.5694L53.6414 53.8486C53.2959 53.9867 52.925 54.0501 52.5533 54.0347C52.1815 54.0192 51.8173 53.9252 51.4844 53.759L48.6876 52.3604C48.1325 52.0839 47.5264 51.9244 46.907 51.8919C46.2877 51.8595 45.6683 51.9547 45.0873 52.1717L40.389 53.9333C39.7535 54.1729 39.0498 54.1567 38.426 53.8881L35.6369 52.6928C38.5408 51.9744 41.2806 50.7074 43.7087 48.9599L44.5837 49.8349C44.7595 50.0107 44.998 50.1095 45.2466 50.1095C45.4952 50.1095 45.7336 50.0107 45.9094 49.8349L49.887 45.8576C50.0466 45.6983 50.1433 45.4867 50.1592 45.2617C50.1752 45.0368 50.1092 44.8136 49.9736 44.6335L51.7364 43.3995C53.7085 42.0179 55.3188 40.1816 56.4309 38.0458C57.543 35.9101 58.1242 33.5379 58.1252 31.1299ZM34.85 19.7951L34.6406 20.0045C34.5535 20.0916 34.4845 20.1949 34.4373 20.3087C34.3902 20.4224 34.366 20.5443 34.366 20.6674C34.366 20.7906 34.3902 20.9125 34.4373 21.0262C34.4845 21.14 34.5535 21.2433 34.6406 21.3304L38.618 25.3078C38.7051 25.3949 38.8084 25.4639 38.9222 25.5111C39.0359 25.5582 39.1578 25.5824 39.281 25.5824C39.4041 25.5824 39.526 25.5582 39.6397 25.5111C39.7535 25.4639 39.8568 25.3949 39.9439 25.3078L40.1528 25.0988C40.7582 26.369 41.1207 27.7412 41.2216 29.1447L43.0919 29.0117C42.9585 27.1531 42.4321 25.3441 41.5475 23.7041L47.668 17.5838C50.2031 21.2085 51.5627 25.5249 51.5627 29.9482C51.5627 34.3714 50.2031 38.6878 47.668 42.3126L41.5477 36.1922C42.4075 34.5978 42.9291 32.8433 43.0802 31.0382L41.2116 30.8833C41.0977 32.2411 40.7391 33.5672 40.1531 34.7973L39.944 34.5883C39.857 34.5012 39.7536 34.4321 39.6399 34.385C39.5261 34.3379 39.4042 34.3137 39.2811 34.3137C39.158 34.3137 39.036 34.3379 38.9223 34.385C38.8086 34.4321 38.7052 34.5012 38.6182 34.5883L34.6408 38.5654C34.5537 38.6524 34.4847 38.7558 34.4375 38.8695C34.3904 38.9833 34.3661 39.1052 34.3661 39.2284C34.3661 39.3515 34.3904 39.4734 34.4375 39.5872C34.4847 39.7009 34.5537 39.8043 34.6408 39.8913L34.8502 40.1006C33.3337 40.8167 31.6775 41.1881 30.0004 41.1881C28.3234 41.1881 26.6671 40.8167 25.1506 40.1006L25.36 39.8913C25.4471 39.8043 25.5162 39.7009 25.5633 39.5872C25.6104 39.4734 25.6347 39.3515 25.6347 39.2284C25.6347 39.1052 25.6104 38.9833 25.5633 38.8695C25.5162 38.7558 25.4471 38.6524 25.36 38.5654L21.3826 34.5879C21.2955 34.5008 21.1922 34.4318 21.0784 34.3847C20.9647 34.3375 20.8428 34.3133 20.7196 34.3133C20.5965 34.3133 20.4746 34.3375 20.3609 34.3847C20.2471 34.4318 20.1438 34.5008 20.0567 34.5879L19.8474 34.7972C19.1313 33.2808 18.7599 31.6245 18.7599 29.9475C18.7599 28.2705 19.1313 26.6143 19.8474 25.0978L20.0567 25.3072C20.1438 25.3943 20.2471 25.4634 20.3609 25.5105C20.4746 25.5576 20.5965 25.5818 20.7196 25.5818C20.8428 25.5818 20.9647 25.5576 21.0784 25.5105C21.1922 25.4634 21.2955 25.3943 21.3826 25.3072L25.3596 21.3302C25.4466 21.2432 25.5157 21.1398 25.5628 21.0261C25.6099 20.9123 25.6342 20.7904 25.6342 20.6673C25.6342 20.5442 25.6099 20.4223 25.5628 20.3085C25.5157 20.1948 25.4466 20.0914 25.3596 20.0044L25.1501 19.795C26.6667 19.0788 28.323 18.7074 30.0001 18.7075C31.6772 18.7075 33.3335 19.0789 34.85 19.7951ZM12.3324 42.312C9.7974 38.6872 8.4378 34.3708 8.4378 29.9476C8.4378 25.5243 9.7974 21.2079 12.3324 17.5832L18.4539 23.7047C17.4263 25.6251 16.8886 27.7695 16.8886 29.9476C16.8886 32.1256 17.4263 34.27 18.4539 36.1904L12.3324 42.312ZM30.0002 51.51C25.5776 51.5053 21.2626 50.1461 17.6357 47.6154L23.7573 41.4939C25.6773 42.5228 27.8219 43.0611 30.0002 43.0611C32.1785 43.0611 34.3231 42.5228 36.2431 41.4939L42.3646 47.6154C38.7377 50.1461 34.4227 51.5053 30.0002 51.51Z" fill="#FFBB4A"/>
</svg>
