<svg width="60" height="60" viewBox="0 0 60 60" fill="none" xmlns="http://www.w3.org/2000/svg">
<path d="M6.52347 15.665C6.98097 15.05 7.58347 14.2175 8.06597 13.6225C9.51097 11.9825 9.69847 11.7675 11.0135 10.555C11.4035 10.235 11.866 9.85 12.3185 9.4875C8.98097 12.3125 8.55597 15.44 11.6185 17.3725C11.6135 17.3725 11.6135 17.3725 11.6135 17.3775C15.896 19.9575 25.281 19.4 32.686 16.095C39.8585 12.895 42.506 8.3175 38.966 5.5975C35.8585 5.015 32.1535 4.9475 28.2335 5.4725L27.826 4.8L28.1635 3.685C30.4685 3.4775 32.6585 3.5275 34.5485 3.85C35.006 3.9275 35.6085 4.06 36.0585 4.155C36.9285 4.3675 37.401 4.495 37.9685 4.6775C38.5485 4.85 39.0435 5.0225 39.906 5.3425C40.751 5.675 41.116 5.825 41.7935 6.1625C42.5522 6.50866 43.2893 6.9002 44.001 7.335C49.641 10.8825 46.1335 17.355 36.181 21.79C26.256 26.21 13.6085 26.905 7.94097 23.4C7.93847 23.395 7.93097 23.39 7.91597 23.385H7.92597C4.83097 21.425 4.50597 18.58 6.52347 15.665V15.665ZM32.346 40.465L32.266 36.48L29.4335 33.33C20.076 35.45 10.8785 34.995 5.76347 31.9825C5.74597 31.9625 5.70347 31.9425 5.68597 31.9225C2.79097 30.14 2.07597 27.84 2.29347 25.34C1.61597 28.9975 1.56097 30.3175 1.65847 33.4475C1.77847 35.4075 2.91097 37.215 5.18847 38.64L5.20597 38.66C10.6585 42.05 22.0185 42.785 32.346 40.465ZM44.1585 45.0275C30.951 50.325 14.421 50.6375 7.24097 45.735C8.01636 47.6299 9.07141 49.3979 10.371 50.98C16.961 55.48 32.1335 55.1925 44.251 50.33C51.3435 47.4875 55.8185 43.705 56.9935 40.16L57.3235 39.0925C58.106 36.3875 58.2535 34.135 58.3785 32.13C58.236 36.4825 53.1085 41.4325 44.1585 45.0275V45.0275ZM15.0035 55.23C15.4185 55.625 16.7235 57.2275 23.336 58.9975C25.1235 59.3925 29.6235 60.66 37.936 58.8175L37.986 58.06L37.3285 57.03C29.616 58.855 21.0485 58.245 15.0035 55.23V55.23ZM34.0885 23.7075L41.111 29.03C41.111 29.03 42.6135 30.1125 41.196 30.8725C39.7835 31.625 36.156 33.4675 36.156 33.4675L32.5735 32.13L30.776 32.93L33.946 35.6825L33.971 39.965L35.8335 39.1375L37.0685 35.52C37.0685 35.52 40.861 34.06 42.366 33.51C43.8785 32.9725 43.676 34.8125 43.676 34.8125L42.931 43.59L45.406 42.49L49.481 30.6475C49.481 30.6475 51.641 29.5975 53.161 28.675C54.6785 27.7525 55.1985 26.2225 55.1985 26.2225C55.1985 26.2225 53.7185 25.585 52.0135 26.0975C50.3085 26.605 48.086 27.51 48.086 27.51L36.556 22.6125L34.0885 23.7075V23.7075ZM19.231 6.8675L23.9985 10.665L25.301 10.47L22.706 7.0625C22.706 7.0625 22.141 6.3575 22.901 6.19C23.666 6.02 25.601 5.625 25.601 5.625L27.056 6.7875L28.036 6.6425L26.926 4.8775L27.511 2.92L26.5635 3.0575L25.441 4.5475C25.441 4.5475 23.471 4.7325 22.696 4.7975C21.916 4.8575 22.251 4.02 22.251 4.02L23.746 0L22.436 0.1925L18.986 5.215C18.986 5.215 17.836 5.425 17.0035 5.6625C16.1685 5.8975 15.7285 6.5425 15.7285 6.5425C15.7285 6.5425 16.341 7.0375 17.2035 7.02C18.0735 7.0025 19.231 6.8675 19.231 6.8675V6.8675ZM42.7935 55.6625L39.7085 54.05L38.9985 54.2975L40.826 55.9325C40.826 55.9325 41.216 56.265 40.806 56.4425C40.396 56.6175 39.351 57.0475 39.351 57.0475L38.4885 56.6625L37.976 56.8475L38.6935 57.6125L38.6235 58.73L39.1585 58.545L39.5585 57.6375C39.5585 57.6375 40.6435 57.315 41.076 57.2C41.506 57.0825 41.4085 57.5875 41.4085 57.5875L41.001 60L41.7135 59.7525L43.111 56.5625C43.111 56.5625 43.7285 56.32 44.171 56.0975C44.6135 55.875 44.7885 55.465 44.7885 55.465C44.7885 55.465 44.396 55.25 43.911 55.3575C43.4235 55.46 42.7935 55.6625 42.7935 55.6625Z" fill="#FFBB4A"/>
</svg>
